<?xml version="1.0" standalone="no"?>
<!DOCTYPE svg PUBLIC "-//W3C//DTD SVG 20010904//EN"
 "http://www.w3.org/TR/2001/REC-SVG-20010904/DTD/svg10.dtd">
<svg version="1.0" xmlns="http://www.w3.org/2000/svg"
 width="700.000000pt" height="700.000000pt" viewBox="0 0 700.000000 700.000000"
 preserveAspectRatio="xMidYMid meet">
<metadata>
Created by potrace 1.14, written by Peter Selinger 2001-2017
</metadata>
<g transform="translate(0.000000,700.000000) scale(0.100000,-0.100000)"
fill="#000000" stroke="none">
<path d="M3300 6780 c-1190 -77 -2237 -778 -2755 -1845 -222 -458 -327 -918
-327 -1435 0 -517 105 -977 327 -1435 493 -1014 1460 -1697 2590 -1831 188
-22 542 -22 730 0 770 91 1462 431 1991 978 514 533 823 1184 910 1923 22 188
22 542 0 730 -134 1131 -816 2096 -1831 2590 -502 244 -1087 361 -1635 325z
m823 -1731 c308 -27 540 -129 716 -315 94 -99 157 -217 186 -344 30 -133 24
-426 -35 -1560 -34 -645 -48 -858 -56 -871 -7 -12 -861 -12 -868 0 -3 4 -1 86
4 182 78 1407 93 1741 80 1845 -19 154 -57 231 -149 301 -140 108 -536 107
-753 -2 -156 -78 -250 -201 -298 -388 -24 -94 -29 -168 -80 -1137 -22 -415
-42 -770 -45 -788 l-6 -32 -432 2 -432 3 -3 175 c-2 111 7 313 23 555 14 209
41 675 60 1035 19 360 42 786 50 945 9 160 18 296 20 303 4 10 92 12 417 10
l413 -3 5 -183 5 -182 115 106 c63 58 146 126 184 152 130 86 326 156 511 181
156 21 222 23 368 10z"/>
</g>
</svg>
